<svg width="21" height="20" viewBox="0 0 21 20" fill="none" xmlns="http://www.w3.org/2000/svg">
<path d="M12.1298 0.775391C12.1991 0.32793 12.56 0 12.9829 0C13.2563 0 13.5116 0.1375 13.6756 0.371172L14.2918 1.25H16.1912C16.6542 1.25 17.1027 1.44766 17.4308 1.79922L18.0834 2.5H20.125C20.6099 2.5 21 2.91992 21 3.4375V4.375C21 6.10156 19.6948 7.5 18.0834 7.5H15.5568L15.3709 8.69141L11.2876 6.19141L12.1298 0.775391ZM16.3334 2.5C16.0126 2.5 15.7501 2.77969 15.7501 3.125C15.7501 3.47031 16.0126 3.75 16.3334 3.75C16.6542 3.75 16.9167 3.47031 16.9167 3.125C16.9167 2.77969 16.6542 2.5 16.3334 2.5ZM15.1667 10.0039V18.75C15.1667 19.4414 14.6454 20 14.0001 20H12.8334C12.1881 20 11.6668 19.4414 11.6668 18.75V14.25C10.759 14.7305 9.80014 15 8.75016 15C7.70017 15 6.70852 14.7305 5.83353 14.25V18.75C5.83353 19.4414 5.31218 20 4.66687 20H3.50022C2.85601 20 2.33357 19.4414 2.33357 18.75V9.75781C1.28468 9.33203 0.461095 8.37891 0.176578 7.16016L0.035114 6.55469C-0.121174 5.88281 0.2589 5.20312 0.884006 5.00391C1.50889 4.87109 2.14253 5.27734 2.29894 5.94531L2.44039 6.55469C2.57018 7.10938 3.03684 7.46484 3.57205 7.46484H11.0762L15.1667 10.0039Z" fill="#0065FC"/>
</svg>
