<svg width="21" height="16" viewBox="0 0 21 16" fill="none" xmlns="http://www.w3.org/2000/svg">
<path d="M20.3815 1.34981C19.1087 0.812954 17.835 0.608704 16.5619 0.608704C12.5204 0.608374 8.47927 2.66573 4.43782 2.66573C3.42426 2.66573 2.41135 2.53638 1.39779 2.21301C1.28393 2.17672 1.16975 2.15956 1.05819 2.15956C0.493492 2.15956 0 2.59908 0 3.20919V13.6778C0 14.0945 0.237231 14.4895 0.618178 14.6499C1.89095 15.1871 3.16472 15.3913 4.43782 15.3913C8.47927 15.3913 12.5207 13.334 16.5622 13.334C17.5757 13.334 18.5886 13.4633 19.6022 13.7867C19.7161 13.823 19.8303 13.8401 19.9418 13.8401C20.5065 13.8401 21 13.4006 21 12.7905V2.32223C20.9997 1.90515 20.7624 1.51051 20.3815 1.34981ZM1.57498 3.91565C2.23515 4.08196 2.9242 4.16544 3.63294 4.21031C3.44001 5.18009 2.59215 5.91097 1.57498 5.91097V3.91565ZM1.57498 13.3198V11.7432C2.70272 11.7432 3.61522 12.643 3.66543 13.7692C2.92617 13.7095 2.23515 13.561 1.57498 13.3198ZM10.4998 11.1677C9.04987 11.1677 7.87488 9.74917 7.87488 8.00001C7.87488 6.25051 9.0502 4.83231 10.4998 4.83231C11.9495 4.83231 13.1248 6.25051 13.1248 8.00001C13.1248 9.74983 11.9491 11.1677 10.4998 11.1677ZM19.4247 12.0844C18.8498 11.9395 18.253 11.8583 17.6423 11.8059C17.835 10.9453 18.5447 10.292 19.4247 10.1798V12.0844ZM19.4247 4.29347C18.4111 4.16445 17.6246 3.31346 17.5935 2.26251C18.2346 2.33411 18.8433 2.46808 19.4247 2.68025V4.29347Z" fill="#0065FC"/>
</svg>
